<mxfile host="app.diagrams.net" modified="2022-09-30T06:58:39.619Z" agent="5.0 (Windows NT 6.1; Win64; x64) AppleWebKit/537.36 (KHTML, like Gecko) Chrome/104.0.0.0 Safari/537.36" etag="uB7sovteBcWCf_WzYlnx" version="20.3.7" type="github">
  <diagram id="R5M0EQiT70jFXRIH_B0B" name="第 1 页">
    <mxGraphModel dx="1422" dy="705" grid="1" gridSize="10" guides="1" tooltips="1" connect="1" arrows="1" fold="1" page="1" pageScale="1" pageWidth="827" pageHeight="1169" math="0" shadow="0">
      <root>
        <mxCell id="0" />
        <mxCell id="1" parent="0" />
        <mxCell id="CG5CflsM_ie-T5YU8wLy-7" value="MAP" style="rounded=0;whiteSpace=wrap;html=1;" vertex="1" parent="1">
          <mxGeometry x="36" y="40" width="120" height="60" as="geometry" />
        </mxCell>
        <mxCell id="CG5CflsM_ie-T5YU8wLy-8" value="LocationManager" style="rounded=0;whiteSpace=wrap;html=1;" vertex="1" parent="1">
          <mxGeometry x="166" y="40" width="120" height="60" as="geometry" />
        </mxCell>
        <mxCell id="CG5CflsM_ie-T5YU8wLy-9" value="LocationManagerService" style="rounded=0;whiteSpace=wrap;html=1;" vertex="1" parent="1">
          <mxGeometry x="310" y="40" width="140" height="60" as="geometry" />
        </mxCell>
        <mxCell id="CG5CflsM_ie-T5YU8wLy-10" value="GnssLocationProvider" style="rounded=0;whiteSpace=wrap;html=1;" vertex="1" parent="1">
          <mxGeometry x="485" y="40" width="120" height="60" as="geometry" />
        </mxCell>
        <mxCell id="CG5CflsM_ie-T5YU8wLy-11" value="&lt;span style=&quot;&quot;&gt;com_android_server_&lt;br&gt;location_GnssLocationProvider.cpp&lt;/span&gt;" style="rounded=0;whiteSpace=wrap;html=1;" vertex="1" parent="1">
          <mxGeometry x="615" y="40" width="194" height="60" as="geometry" />
        </mxCell>
        <mxCell id="CG5CflsM_ie-T5YU8wLy-12" value="IGnss_V1_1" style="rounded=0;whiteSpace=wrap;html=1;" vertex="1" parent="1">
          <mxGeometry x="818" y="40" width="120" height="60" as="geometry" />
        </mxCell>
        <mxCell id="CG5CflsM_ie-T5YU8wLy-13" value="Gnss.cpp" style="rounded=0;whiteSpace=wrap;html=1;" vertex="1" parent="1">
          <mxGeometry x="945" y="40" width="120" height="60" as="geometry" />
        </mxCell>
        <mxCell id="CG5CflsM_ie-T5YU8wLy-15" value="" style="rounded=0;whiteSpace=wrap;html=1;horizontal=0;" vertex="1" parent="1">
          <mxGeometry x="86" y="181" width="20" height="410" as="geometry" />
        </mxCell>
        <mxCell id="CG5CflsM_ie-T5YU8wLy-18" value="" style="endArrow=none;dashed=1;html=1;dashPattern=1 3;strokeWidth=2;rounded=0;entryX=0.5;entryY=1;entryDx=0;entryDy=0;exitX=0.5;exitY=0;exitDx=0;exitDy=0;exitPerimeter=0;" edge="1" parent="1" source="CG5CflsM_ie-T5YU8wLy-15" target="CG5CflsM_ie-T5YU8wLy-7">
          <mxGeometry width="50" height="50" relative="1" as="geometry">
            <mxPoint x="86" y="180" as="sourcePoint" />
            <mxPoint x="106" y="110" as="targetPoint" />
          </mxGeometry>
        </mxCell>
        <mxCell id="CG5CflsM_ie-T5YU8wLy-19" value="" style="endArrow=none;dashed=1;html=1;dashPattern=1 3;strokeWidth=2;rounded=0;entryX=0.5;entryY=1;entryDx=0;entryDy=0;exitX=0.5;exitY=0;exitDx=0;exitDy=0;exitPerimeter=0;" edge="1" parent="1">
          <mxGeometry width="50" height="50" relative="1" as="geometry">
            <mxPoint x="225.5" y="180" as="sourcePoint" />
            <mxPoint x="225.5" y="100" as="targetPoint" />
          </mxGeometry>
        </mxCell>
        <mxCell id="CG5CflsM_ie-T5YU8wLy-20" value="" style="rounded=0;whiteSpace=wrap;html=1;horizontal=0;" vertex="1" parent="1">
          <mxGeometry x="216" y="175" width="20" height="410" as="geometry" />
        </mxCell>
        <mxCell id="CG5CflsM_ie-T5YU8wLy-23" value="getSystemService" style="text;html=1;resizable=0;autosize=1;align=center;verticalAlign=middle;points=[];fillColor=none;strokeColor=none;rounded=0;" vertex="1" parent="1">
          <mxGeometry x="96" y="203" width="120" height="30" as="geometry" />
        </mxCell>
        <mxCell id="CG5CflsM_ie-T5YU8wLy-24" value="" style="endArrow=classic;html=1;rounded=0;exitX=1.1;exitY=0.134;exitDx=0;exitDy=0;exitPerimeter=0;entryX=1.025;entryY=1.1;entryDx=0;entryDy=0;entryPerimeter=0;" edge="1" parent="1" source="CG5CflsM_ie-T5YU8wLy-15" target="CG5CflsM_ie-T5YU8wLy-23">
          <mxGeometry width="50" height="50" relative="1" as="geometry">
            <mxPoint x="131" y="280" as="sourcePoint" />
            <mxPoint x="181" y="230" as="targetPoint" />
          </mxGeometry>
        </mxCell>
        <mxCell id="CG5CflsM_ie-T5YU8wLy-25" value="" style="rounded=0;whiteSpace=wrap;html=1;horizontal=0;" vertex="1" parent="1">
          <mxGeometry x="376" y="175" width="20" height="410" as="geometry" />
        </mxCell>
        <mxCell id="CG5CflsM_ie-T5YU8wLy-26" value="" style="rounded=0;whiteSpace=wrap;html=1;horizontal=0;" vertex="1" parent="1">
          <mxGeometry x="539" y="175" width="20" height="410" as="geometry" />
        </mxCell>
        <mxCell id="CG5CflsM_ie-T5YU8wLy-27" value="" style="rounded=0;whiteSpace=wrap;html=1;horizontal=0;" vertex="1" parent="1">
          <mxGeometry x="697" y="175" width="20" height="410" as="geometry" />
        </mxCell>
        <mxCell id="CG5CflsM_ie-T5YU8wLy-28" value="" style="rounded=0;whiteSpace=wrap;html=1;horizontal=0;" vertex="1" parent="1">
          <mxGeometry x="872" y="175" width="20" height="410" as="geometry" />
        </mxCell>
        <mxCell id="CG5CflsM_ie-T5YU8wLy-29" value="" style="rounded=0;whiteSpace=wrap;html=1;horizontal=0;" vertex="1" parent="1">
          <mxGeometry x="1002" y="175" width="20" height="410" as="geometry" />
        </mxCell>
        <mxCell id="CG5CflsM_ie-T5YU8wLy-30" value="requestLocationUpdates" style="text;html=1;resizable=0;autosize=1;align=center;verticalAlign=middle;points=[];fillColor=none;strokeColor=none;rounded=0;" vertex="1" parent="1">
          <mxGeometry x="231" y="233" width="150" height="30" as="geometry" />
        </mxCell>
        <mxCell id="CG5CflsM_ie-T5YU8wLy-31" value="" style="endArrow=classic;html=1;rounded=0;" edge="1" parent="1">
          <mxGeometry width="50" height="50" relative="1" as="geometry">
            <mxPoint x="240" y="260" as="sourcePoint" />
            <mxPoint x="370" y="260" as="targetPoint" />
          </mxGeometry>
        </mxCell>
        <mxCell id="CG5CflsM_ie-T5YU8wLy-32" value="requestLocationUpdatesLocked" style="text;html=1;resizable=0;autosize=1;align=center;verticalAlign=middle;points=[];fillColor=none;strokeColor=none;rounded=0;" vertex="1" parent="1">
          <mxGeometry x="300" y="280" width="190" height="30" as="geometry" />
        </mxCell>
        <mxCell id="CG5CflsM_ie-T5YU8wLy-33" value="" style="endArrow=classic;html=1;rounded=0;" edge="1" parent="1">
          <mxGeometry width="50" height="50" relative="1" as="geometry">
            <mxPoint x="396" y="250" as="sourcePoint" />
            <mxPoint x="396" y="320" as="targetPoint" />
            <Array as="points">
              <mxPoint x="436" y="250" />
              <mxPoint x="436" y="320" />
            </Array>
          </mxGeometry>
        </mxCell>
        <mxCell id="CG5CflsM_ie-T5YU8wLy-34" value="applyRequirementsLocked" style="text;html=1;resizable=0;autosize=1;align=center;verticalAlign=middle;points=[];fillColor=none;strokeColor=none;rounded=0;" vertex="1" parent="1">
          <mxGeometry x="382" y="320" width="170" height="30" as="geometry" />
        </mxCell>
        <mxCell id="CG5CflsM_ie-T5YU8wLy-35" value="" style="endArrow=classic;html=1;rounded=0;" edge="1" parent="1">
          <mxGeometry width="50" height="50" relative="1" as="geometry">
            <mxPoint x="400" y="347" as="sourcePoint" />
            <mxPoint x="540" y="347" as="targetPoint" />
          </mxGeometry>
        </mxCell>
        <mxCell id="CG5CflsM_ie-T5YU8wLy-36" value="startNavigating" style="text;html=1;resizable=0;autosize=1;align=center;verticalAlign=middle;points=[];fillColor=none;strokeColor=none;rounded=0;" vertex="1" parent="1">
          <mxGeometry x="574" y="390" width="100" height="30" as="geometry" />
        </mxCell>
        <mxCell id="CG5CflsM_ie-T5YU8wLy-37" value="" style="endArrow=classic;html=1;rounded=0;" edge="1" parent="1">
          <mxGeometry width="50" height="50" relative="1" as="geometry">
            <mxPoint x="557" y="417" as="sourcePoint" />
            <mxPoint x="697" y="417" as="targetPoint" />
          </mxGeometry>
        </mxCell>
        <mxCell id="CG5CflsM_ie-T5YU8wLy-38" value="startNavigating" style="text;html=1;resizable=0;autosize=1;align=center;verticalAlign=middle;points=[];fillColor=none;strokeColor=none;rounded=0;" vertex="1" parent="1">
          <mxGeometry x="744" y="420" width="100" height="30" as="geometry" />
        </mxCell>
        <mxCell id="CG5CflsM_ie-T5YU8wLy-39" value="" style="endArrow=classic;html=1;rounded=0;" edge="1" parent="1">
          <mxGeometry width="50" height="50" relative="1" as="geometry">
            <mxPoint x="720" y="447" as="sourcePoint" />
            <mxPoint x="870" y="447" as="targetPoint" />
          </mxGeometry>
        </mxCell>
        <mxCell id="CG5CflsM_ie-T5YU8wLy-40" value="" style="endArrow=none;dashed=1;html=1;dashPattern=1 3;strokeWidth=2;rounded=0;exitX=0.5;exitY=0;exitDx=0;exitDy=0;exitPerimeter=0;" edge="1" parent="1">
          <mxGeometry width="50" height="50" relative="1" as="geometry">
            <mxPoint x="385.5" y="170" as="sourcePoint" />
            <mxPoint x="386" y="100" as="targetPoint" />
          </mxGeometry>
        </mxCell>
        <mxCell id="CG5CflsM_ie-T5YU8wLy-41" value="" style="endArrow=none;dashed=1;html=1;dashPattern=1 3;strokeWidth=2;rounded=0;exitX=0.5;exitY=0;exitDx=0;exitDy=0;exitPerimeter=0;" edge="1" parent="1">
          <mxGeometry width="50" height="50" relative="1" as="geometry">
            <mxPoint x="548.5" y="170" as="sourcePoint" />
            <mxPoint x="549" y="100" as="targetPoint" />
          </mxGeometry>
        </mxCell>
        <mxCell id="CG5CflsM_ie-T5YU8wLy-42" value="" style="endArrow=none;dashed=1;html=1;dashPattern=1 3;strokeWidth=2;rounded=0;exitX=0.5;exitY=0;exitDx=0;exitDy=0;exitPerimeter=0;" edge="1" parent="1">
          <mxGeometry width="50" height="50" relative="1" as="geometry">
            <mxPoint x="706.5" y="170" as="sourcePoint" />
            <mxPoint x="707" y="100" as="targetPoint" />
          </mxGeometry>
        </mxCell>
        <mxCell id="CG5CflsM_ie-T5YU8wLy-43" value="" style="endArrow=none;dashed=1;html=1;dashPattern=1 3;strokeWidth=2;rounded=0;exitX=0.5;exitY=0;exitDx=0;exitDy=0;exitPerimeter=0;" edge="1" parent="1">
          <mxGeometry width="50" height="50" relative="1" as="geometry">
            <mxPoint x="881.5" y="170" as="sourcePoint" />
            <mxPoint x="882" y="100" as="targetPoint" />
          </mxGeometry>
        </mxCell>
        <mxCell id="CG5CflsM_ie-T5YU8wLy-44" value="" style="endArrow=none;dashed=1;html=1;dashPattern=1 3;strokeWidth=2;rounded=0;exitX=0.5;exitY=0;exitDx=0;exitDy=0;exitPerimeter=0;" edge="1" parent="1">
          <mxGeometry width="50" height="50" relative="1" as="geometry">
            <mxPoint x="1011.5" y="170" as="sourcePoint" />
            <mxPoint x="1012" y="100" as="targetPoint" />
          </mxGeometry>
        </mxCell>
      </root>
    </mxGraphModel>
  </diagram>
</mxfile>
